<svg id="Layer_1" data-name="Layer 1" xmlns="http://www.w3.org/2000/svg" viewBox="0 0 321.67 253.88"><defs><style>.cls-1,.cls-2{fill:#102633;}.cls-1{fill-rule:evenodd;}</style></defs><path class="cls-1" d="M57,128.74v-7H46a3.36,3.36,0,0,0-3.35,3.35v18A3.35,3.35,0,0,0,46,146.48H64a3.36,3.36,0,0,0,3.35-3.35v-11h-7A3.36,3.36,0,0,1,57,128.74Z"/><path class="cls-1" d="M78.36,107.39h-18A3.36,3.36,0,0,0,57,110.74v11.05h7a3.36,3.36,0,0,1,3.35,3.35v7h11a3.36,3.36,0,0,0,3.35-3.35v-18A3.36,3.36,0,0,0,78.36,107.39Z"/><path class="cls-2" d="M115.77,131.32c0,3.77-2.8,6.29-6.92,6.29H99.18V115.28h9.19c3.83,0,6.38,2.23,6.38,5.55,0,2.71-1.66,4.53-4.66,5.26C113.83,126.57,115.77,128.55,115.77,131.32Zm-14.07-6.19H108c2.74,0,4-1.3,4-4,0-2.45-1.21-3.6-3.76-3.6H101.7Zm11.36,6c0-2.55-1.5-3.76-4.72-3.76H101.7v8.07h7C111.66,135.41,113.06,134,113.06,131.1Z"/><path class="cls-2" d="M118.48,115.28h2.46v22.33h-2.46Z"/><path class="cls-2" d="M139,130.11a7.76,7.76,0,1,1-7.76-7.82A7.55,7.55,0,0,1,139,130.11Zm-2.53,0c0-3.8-1.69-5.58-5.23-5.58s-5.23,1.78-5.23,5.58,1.69,5.59,5.23,5.59S136.47,133.91,136.47,130.11Z"/><path class="cls-2" d="M152.71,131.42l2.49.67c-.93,3.92-3.61,5.84-7.18,5.84a7.82,7.82,0,0,1,0-15.64c3.57,0,6.25,1.92,7.18,5.84l-2.49.67c-.64-3.28-2.07-4.3-4.72-4.3-3.54,0-5.2,1.78-5.2,5.61s1.66,5.62,5.2,5.62C150.64,135.73,152.07,134.71,152.71,131.42Z"/><path class="cls-2" d="M163.33,130.3l-3.13,3.26v4.05h-2.45V115.28h2.45v16.2l2.37-3.12,5-5.75h3.16l-5.8,6.07,6.38,8.93h-3Z"/><path class="cls-2" d="M198.26,128.58l2.43.7c-1.09,5.65-4.85,8.65-10.72,8.65a11.29,11.29,0,0,1-11.33-11.58A11.12,11.12,0,0,1,190,115c5.87,0,9.63,3,10.72,8.64l-2.43.71c-.76-5-3.09-7-8.29-7-5.55,0-8.68,3.25-8.68,9.06s3.13,9.25,8.68,9.25C195.17,135.6,197.5,133.62,198.26,128.58Z"/><path class="cls-2" d="M217.31,130.11a7.76,7.76,0,1,1-7.76-7.82A7.55,7.55,0,0,1,217.31,130.11Zm-2.53,0c0-3.8-1.69-5.58-5.23-5.58s-5.23,1.78-5.23,5.58,1.69,5.59,5.23,5.59S214.78,133.91,214.78,130.11Z"/><path class="cls-2" d="M233.25,128.17v9.44H230.8v-9.28a3.45,3.45,0,0,0-3.7-3.8c-2.94,0-4.79,2.26-4.79,6.16v6.92h-2.46v-15h2.46v3.7a5.23,5.23,0,0,1,5.49-4C231.31,122.29,233.25,124.4,233.25,128.17Z"/><path class="cls-2" d="M249.46,122.61l-6.06,15h-3.29l-6.06-15h2.77l5,13.4,4.91-13.4Z"/><path class="cls-2" d="M263.62,130.88H252c.16,3.54,1.59,4.94,4.88,4.94,2.46,0,3.44-.6,4.15-2.58l2.29.89c-1.05,2.65-3.63,3.8-6.44,3.8-4.5,0-7.4-3.06-7.4-7.82s3.09-7.82,7.27-7.82,6.92,2.81,6.92,7.41C263.65,130.14,263.65,130.34,263.62,130.88Zm-11.61-2h9.19c-.19-3.23-1.47-4.5-4.5-4.5C253.83,124.37,252.3,125.8,252,128.87Z"/><path class="cls-2" d="M279.06,122.61l-7.15,17.62c-.89,2.13-1.85,2.8-4.08,2.8h-3.35V140.8h5.33l.51-1.5-6.67-16.69h2.78l3.7,10,1.24,3.61,1.28-3.64,3.63-10Z"/></svg>